<?xml version="1.0" encoding="utf-8"?>
<!-- Generator: Adobe Illustrator 23.0.6, SVG Export Plug-In . SVG Version: 6.00 Build 0)  -->
<svg version="1.1" id="Layer_1" xmlns="http://www.w3.org/2000/svg" xmlns:xlink="http://www.w3.org/1999/xlink" x="0px" y="0px"
	 viewBox="0 0 512 512" style="enable-background:new 0 0 512 512;" xml:space="preserve">
<style type="text/css">
	.st0{fill:url(#SVGID_1_);stroke:url(#SVGID_2_);stroke-miterlimit:10;}
</style>
<linearGradient id="SVGID_1_" gradientUnits="userSpaceOnUse" x1="-7" y1="256" x2="505" y2="256">
	<stop  offset="0" style="stop-color:#F37E5F"/>
	<stop  offset="0.5" style="stop-color:#EC1C24"/>
	<stop  offset="1" style="stop-color:#CF232A"/>
</linearGradient>
<linearGradient id="SVGID_2_" gradientUnits="userSpaceOnUse" x1="-7.5" y1="256" x2="505.5" y2="256">
	<stop  offset="0" style="stop-color:#F37F7B"/>
	<stop  offset="0.5" style="stop-color:#ED3D57"/>
	<stop  offset="1" style="stop-color:#DD1E47"/>
</linearGradient>
<path class="st0" d="M68,512h167V330h-60v-60h60v-75c0-41.4,33.6-75,75-75h75v60h-60c-16.5,0-30,13.5-30,30v60h87.3l-10,60H295v182
	h135c41.4,0,75-33.6,75-75V75c0-41.4-33.6-75-75-75H68C26.6,0-7,33.6-7,75v362C-7,478.4,26.6,512,68,512z M23,75
	c0-24.8,20.2-45,45-45h362c24.8,0,45,20.2,45,45v362c0,24.8-20.2,45-45,45H325V360h72.7l20-120H325v-30h90V90H310
	c-57.9,0-105,47.1-105,105v45h-60v120h60v122H68c-24.8,0-45-20.2-45-45V75z"/>
</svg>
